<svg width="126" height="35" viewBox="0 0 126 35" fill="none" xmlns="http://www.w3.org/2000/svg">
<rect width="33.5627" height="33.5627" transform="translate(0 0.924927)" fill="#324F94"/>
<path d="M26.7365 19.8691H22.452V31.0744H26.7365V19.8691ZM22.452 19.8691V15.5846H11.6389H7.39526V4.33807H11.6389V15.5846V19.8691H22.452ZM22.452 15.5846H26.7365V4.33807H22.452V15.5846ZM11.6389 19.8691H7.39526V31.0744H11.6389V19.8691Z" fill="white"/>
<path d="M50.6924 10.283V15.6674H56.0984V10.283H59.861V24.7063H56.0984V18.8678H50.6924V24.7063H46.9514V10.283H50.6924ZM62.5706 15.0403H66.0305V24.7063H62.5706V15.0403ZM62.3544 11.0182C62.3544 9.93699 63.2194 9.07202 64.3006 9.07202C65.3818 9.07202 66.2467 9.93699 66.2467 11.0182C66.2467 12.0994 65.3818 12.9644 64.3006 12.9644C63.2194 12.9644 62.3544 12.0994 62.3544 11.0182ZM67.7724 23.9062L69.005 21.5059C69.4159 21.8086 69.9132 22.0681 70.3889 22.2195C70.8214 22.3709 71.362 22.4574 71.7296 22.4574C71.9891 22.4574 72.4 22.3925 72.6162 22.1979C72.7676 22.0465 72.7892 21.9168 72.7892 21.7438C72.7892 21.5924 72.7676 21.441 72.6162 21.3113C72.4 21.1167 72.054 21.0518 71.708 20.9653L70.7998 20.7491C70.3241 20.6409 69.6321 20.4679 69.1131 19.9057C68.7455 19.5165 68.486 18.9759 68.486 18.2407C68.486 17.3108 68.8536 16.4459 69.3942 15.8836C70.1295 15.1268 71.4269 14.7159 72.8541 14.7159C74.2813 14.7159 75.3841 15.1052 75.9463 15.343L74.7786 17.5487C74.3029 17.3324 73.5893 17.073 72.9622 17.073C72.6162 17.073 72.3784 17.1378 72.1621 17.2676C71.9675 17.3757 71.8594 17.5271 71.8594 17.7433C71.8594 18.046 72.054 18.1974 72.2702 18.2839C72.5946 18.4136 72.8757 18.4136 73.4163 18.565L74.0434 18.738C74.4975 18.8678 75.1895 19.2137 75.4706 19.4949C75.9463 19.949 76.2058 20.7058 76.2058 21.4194C76.2058 22.5871 75.7085 23.3656 75.2328 23.8197C74.1083 24.9441 72.4649 25.0306 71.6648 25.0306C70.7998 25.0306 69.4375 24.9225 67.7724 23.9062ZM85.4682 15.9701V15.0403H88.9281V24.7063H85.4682V23.6467C84.6681 24.7495 83.4139 25.0306 82.4625 25.0306C81.4245 25.0306 80.1487 24.7279 78.981 23.4953C78.0512 22.5006 77.597 21.3978 77.597 19.949C77.597 18.1325 78.3106 16.8567 79.0891 16.0782C79.9108 15.2565 81.1867 14.7159 82.5706 14.7159C84.1275 14.7159 85.0574 15.516 85.4682 15.9701ZM83.3491 17.6568C82.9166 17.6568 82.3327 17.8082 81.8354 18.2839C81.3596 18.738 81.1434 19.3651 81.1434 19.8625C81.1434 20.4247 81.3813 21.0302 81.8138 21.441C82.1814 21.787 82.7868 22.0897 83.3707 22.0897C83.9329 22.0897 84.4951 21.8519 84.9276 21.4194C85.2304 21.1167 85.5763 20.6409 85.5763 19.8625C85.5763 19.4084 85.4466 18.8029 84.906 18.2839C84.5816 17.9812 84.0843 17.6568 83.3491 17.6568ZM91.3113 8.94228H94.7712V15.9701C95.3983 15.2998 96.3281 14.7159 97.6472 14.7159C98.8365 14.7159 100.112 15.1052 101.064 16.0134C101.95 16.8567 102.642 18.1974 102.642 19.8408C102.642 21.3762 102.058 22.7385 101.085 23.6899C100.177 24.5765 99.0744 25.0306 97.6904 25.0306C97.0201 25.0306 95.7443 24.9009 94.7712 23.6467V24.7063H91.3113V8.94228ZM96.8903 22.0897C97.3877 22.0897 97.9499 21.9168 98.4256 21.441C98.8798 20.9869 99.096 20.4247 99.096 19.9273C99.096 19.2786 98.8149 18.6731 98.4256 18.2839C98.1229 17.9812 97.6256 17.6568 96.8903 17.6568C96.2416 17.6568 95.701 17.8947 95.3118 18.3055C94.9658 18.6731 94.663 19.3219 94.663 19.8625C94.663 20.4463 94.9442 21.095 95.3983 21.5059C95.7659 21.8303 96.3281 22.0897 96.8903 22.0897ZM114.886 20.1436V20.5112H107.685C107.685 21.0302 107.88 21.7221 108.291 22.133C108.507 22.3492 108.94 22.6087 109.718 22.6087C109.804 22.6087 110.41 22.5871 110.842 22.3492C111.059 22.2195 111.297 22.0033 111.448 21.7005H114.756C114.605 22.2411 114.302 22.998 113.589 23.6899C112.875 24.3819 111.751 25.0306 109.653 25.0306C108.377 25.0306 106.842 24.7495 105.653 23.5602C105.026 22.9331 104.225 21.7438 104.225 19.9057C104.225 18.2839 104.831 16.9865 105.674 16.1647C106.474 15.3863 107.729 14.7592 109.632 14.7592C110.756 14.7592 112.205 14.997 113.351 16.0782C114.713 17.3757 114.886 19.0624 114.886 20.1436ZM107.793 18.5218H111.707C111.621 18.1542 111.405 17.7433 111.145 17.4838C110.691 17.0297 110.064 16.9648 109.718 16.9648C109.134 16.9648 108.68 17.1162 108.312 17.4838C108.075 17.7433 107.858 18.0893 107.793 18.5218ZM116.884 24.7063V15.0403H120.344V16.6188C120.69 15.9701 121.188 15.5376 121.707 15.2781C122.226 14.997 122.853 14.8889 123.501 14.8889C123.588 14.8889 123.739 14.9105 124.193 14.9322V18.1974C124.02 18.1109 123.545 17.8514 122.701 17.8514C122.247 17.8514 121.62 17.9163 121.123 18.3704C120.387 19.0407 120.344 20.0571 120.344 20.5761V24.7063H116.884Z" fill="#324F94"/>
</svg>
