<svg width="134" height="105" viewBox="0 0 134 105" fill="none" xmlns="http://www.w3.org/2000/svg">
<rect width="56.5267" height="56.5267" transform="translate(38.4863 0.95256)" fill="#324F94"/>
<path d="M83.5162 32.8585H76.3003V51.7308H83.5162V32.8585ZM76.3003 32.8585V25.6426H58.0887H50.9415V6.70102H58.0887V25.6426V32.8585H76.3003ZM76.3003 25.6426H83.5162V6.70102H76.3003V25.6426ZM58.0887 32.8585H50.9415V51.7308H58.0887V32.8585Z" fill="white"/>
<path d="M8.59955 69.1873H2.29895V93.4792H8.59955V83.6459H17.7045V93.4792H24.0415V69.1873H17.7045V78.2558H8.59955V69.1873ZM28.605 77.1997V93.4792H34.4322V77.1997H28.605ZM28.2408 70.4256C28.2408 72.2466 29.6976 73.7034 31.5186 73.7034C33.3396 73.7034 34.7964 72.2466 34.7964 70.4256C34.7964 68.6046 33.3396 67.1478 31.5186 67.1478C29.6976 67.1478 28.2408 68.6046 28.2408 70.4256ZM37.366 92.1317C40.1703 93.8434 42.4647 94.0255 43.9215 94.0255C45.269 94.0255 48.0369 93.8799 49.9307 91.986C50.732 91.2212 51.5696 89.9101 51.5696 87.9435C51.5696 86.7416 51.1326 85.4669 50.3313 84.7021C49.8579 84.2287 48.6925 83.6459 47.9277 83.4274L46.8715 83.1361C45.961 82.8811 45.4875 82.8811 44.9412 82.6626C44.577 82.5169 44.2493 82.262 44.2493 81.7521C44.2493 81.3879 44.4314 81.133 44.7591 80.9509C45.1233 80.7324 45.524 80.6231 46.1067 80.6231C47.1628 80.6231 48.3647 81.0601 49.1659 81.4243L51.1326 77.7095C50.1857 77.3089 48.3283 76.6534 45.9246 76.6534C43.5209 76.6534 41.3357 77.3453 40.0974 78.62C39.1869 79.5669 38.5678 81.0237 38.5678 82.5898C38.5678 83.828 39.0048 84.7385 39.624 85.3941C40.498 86.341 41.6635 86.6324 42.4647 86.8145L43.9943 87.1786C44.577 87.3243 45.1598 87.4336 45.524 87.7614C45.7789 87.9799 45.8153 88.2348 45.8153 88.4898C45.8153 88.7811 45.7789 88.9996 45.524 89.2546C45.1598 89.5823 44.4678 89.6916 44.0307 89.6916C43.4116 89.6916 42.5011 89.5459 41.7727 89.291C40.9715 89.0361 40.1338 88.599 39.4419 88.0891L37.366 92.1317ZM67.1695 78.7657C66.4775 78.0009 64.9114 76.6534 62.2892 76.6534C59.9584 76.6534 57.8096 77.5639 56.4257 78.9478C55.1146 80.2589 53.9127 82.4077 53.9127 85.4669C53.9127 87.907 54.6775 89.7644 56.2436 91.4397C58.2102 93.5157 60.359 94.0255 62.1071 94.0255C63.7096 94.0255 65.8219 93.5521 67.1695 91.6947V93.4792H72.9966V77.1997H67.1695V78.7657ZM63.6003 81.6064C64.8386 81.6064 65.6763 82.1527 66.2225 82.6626C67.133 83.5367 67.3516 84.5564 67.3516 85.3212C67.3516 86.6324 66.7688 87.4336 66.259 87.9435C65.5306 88.6719 64.5837 89.0725 63.6368 89.0725C62.6534 89.0725 61.6337 88.5626 61.0145 87.9799C60.2861 87.2879 59.8855 86.2682 59.8855 85.3212C59.8855 84.4836 60.2497 83.4274 61.051 82.6626C61.8886 81.8614 62.8719 81.6064 63.6003 81.6064ZM77.0105 66.9293V93.4792H82.8376V91.6947C84.4765 93.807 86.6252 94.0255 87.7542 94.0255C90.0851 94.0255 91.9425 93.2607 93.4721 91.7675C95.111 90.1651 96.0943 87.8706 96.0943 85.2848C96.0943 82.5169 94.9289 80.2589 93.4357 78.8385C91.8332 77.3089 89.6845 76.6534 87.6814 76.6534C85.4598 76.6534 83.8938 77.6367 82.8376 78.7657V66.9293H77.0105ZM86.4067 89.0725C85.4598 89.0725 84.5129 88.6354 83.8938 88.0891C83.129 87.3972 82.6555 86.3046 82.6555 85.3212C82.6555 84.4108 83.1654 83.3182 83.7481 82.699C84.4036 82.0071 85.3141 81.6064 86.4067 81.6064C87.645 81.6064 88.4826 82.1527 88.9925 82.6626C89.6481 83.3182 90.1215 84.3379 90.1215 85.4305C90.1215 86.2682 89.7573 87.2151 88.9925 87.9799C88.1913 88.7811 87.2444 89.0725 86.4067 89.0725ZM116.716 85.7947C116.716 83.9737 116.424 81.133 114.13 78.9478C112.2 77.1268 109.759 76.7262 107.866 76.7262C104.661 76.7262 102.548 77.7824 101.201 79.0935C99.7804 80.4774 98.7607 82.6626 98.7607 85.3941C98.7607 88.4898 100.108 90.4928 101.164 91.549C103.167 93.5521 105.753 94.0255 107.902 94.0255C111.435 94.0255 113.329 92.933 114.53 91.7675C115.732 90.6021 116.242 89.3274 116.497 88.4169H110.925C110.67 88.9268 110.269 89.291 109.905 89.5095C109.177 89.9101 108.157 89.9465 108.011 89.9465C106.7 89.9465 105.972 89.5095 105.608 89.1453C104.916 88.4533 104.588 87.2879 104.588 86.4138H116.716V85.7947ZM104.77 83.0632C104.879 82.3348 105.243 81.7521 105.644 81.3151C106.263 80.696 107.028 80.441 108.011 80.441C108.594 80.441 109.65 80.5503 110.415 81.3151C110.852 81.7521 111.216 82.4441 111.362 83.0632H104.77ZM120.081 93.4792H125.908V86.5231C125.908 85.649 125.981 83.9373 127.219 82.8083C128.057 82.0435 129.113 81.9342 129.878 81.9342C131.298 81.9342 132.099 82.3713 132.391 82.5169V77.0176C131.626 76.9811 131.371 76.9447 131.225 76.9447C130.133 76.9447 129.077 77.1268 128.203 77.6003C127.328 78.0373 126.491 78.7657 125.908 79.8583V77.1997H120.081V93.4792Z" fill="white"/>
</svg>
